# xmcd
#
# Track frame offsets:
#	150
#	8869
#	21001
#	40758
#	50315
#	67319
#	80085
#	97273
#	108028
#	126768
#	140940
#	155116
#	168938
#	185285
#	197226
#	220147
#
# Disc length: 2952 seconds
#
# Revision: 0
# Processed by: cddbd v1.4PL0 Copyright (c) Steve Scherf et al.
# Submitted via: EasyCDDAExtractor 5.0.2.1
#
DISCID=e70b8610
DTITLE=Lloyd Banks - Mo' Money In The Bank (Pt.2)
DYEAR=2003
DGENRE=East Coast Gangster
TTITLE0=I'm Back
TTITLE1=Get Down (Ft. Prodigy)
TTITLE2=Get Shot (Ft. 50 cent and Young Buck)
TTITLE3=Squeeze First
TTITLE4=Teach You How To Stunt (Ft. 50 Cent and Young Buck) 
TTITLE5=Steppen' It Hotta (Ft. Beyonce)
TTITLE6=Dick'll Do (Ft. Snoop Dogg and Busta Rymes)
TTITLE7=Playa Shit
TTITLE8=Fall Back (Ft. Brandy and Fabolous)
TTITLE9=You Tyring To Be A Gangsta
TTITLE10=Move (Ft. 50 Cent)
TTITLE11=Exclusive (Ft. Nate Dogg and Snoop Dogg)
TTITLE12=Exclusive (Ft. Busta Rymes and Fabolous)
TTITLE13=Freestyle
TTITLE14=Headz (Ft. 50 Cent, Eminem and Tony Yayo)
TTITLE15=Whoo Kid Sada Pop Outro
EXTD=
EXTT0=
EXTT1=
EXTT2=
EXTT3=
EXTT4=
EXTT5=
EXTT6=
EXTT7=
EXTT8=
EXTT9=
EXTT10=
EXTT11=
EXTT12=
EXTT13=
EXTT14=
EXTT15=
PLAYORDER=
